<svg version="1.1" id="Layer_1" xmlns="http://www.w3.org/2000/svg" xmlns:xlink="http://www.w3.org/1999/xlink" x="0px" y="0px" viewBox="0 0 1920 1920" enable-background="new 0 0 1920 1920" xml:space="preserve" class="w-24 h-24 md:w-20 md:h-20 mx-auto">
<g>
	<g>
		<g>
			<path fill="#1C1C1C" d="M5702.034,716.242H4443.036c-7.473,0-13.531-6.058-13.531-13.531v-57.506
				c0-7.473,6.058-13.531,13.531-13.531h1258.998c7.473,0,13.531,6.058,13.531,13.531v57.506
				C5715.564,710.184,5709.506,716.242,5702.034,716.242z"></path>
			<g>
				<path fill="#1C1C1C" d="M4848.674,1627.549h-405.638c-7.473,0-13.531-6.058-13.531-13.531v-57.506
					c0-7.473,6.058-13.531,13.531-13.531h405.638c7.473,0,13.531,6.058,13.531,13.531v57.506
					C4862.205,1621.491,4856.147,1627.549,4848.674,1627.549z"></path>
				<path fill="#1C1C1C" d="M5702.391,1627.549h-402.784c-7.473,0-13.531-6.058-13.531-13.531v-57.506
					c0-7.473,6.058-13.531,13.531-13.531h402.784c7.473,0,13.531,6.058,13.531,13.531v57.506
					C5715.921,1621.491,5709.863,1627.549,5702.391,1627.549z"></path>
			</g>
		</g>
	</g>
	<g>
		<g>
			<path fill="#1C1C1C" d="M5328.794,321.212c-2.968-4.443-6.74-8.577-11.391-12.33c-0.077-0.081-0.155-0.164-0.23-0.243
				c-0.36-0.372-0.769-0.493-1.145-0.786c-4.102-3.134-8.789-6.012-14.257-8.523c-69.591-31.938-127.093,55.05-159.006,102.697
				c-48.154,71.898-81.819,151.842-102.123,235.727c-0.101-0.002-0.199,0.004-0.301,0.004
				c-22.859-69.344-58.896-133.087-109.366-186.478c-116.295-123.023-199.67-39.214-213.842,77.821
				c-4,33.029,30.108,49.798,54.248,64.971c113.497,71.353,197.793,64.807,228.886,77.688c0.103,0.041,0.378,0.164,0.791,0.351
				c-4.175,11.262,13.128,28.588,13.128,28.588c6.952,7.093,16.526,11.378,27.345,10.187c2.71-0.297,5.372-0.977,7.941-1.947
				c3.508-0.147,7.024-1.058,10.168-2.573c1.551-0.75,2.972-1.708,4.327-2.756c18.529-18.447,12.124-36.629,12.124-36.629
				c-0.8-3.878-2.142-7.65-4.013-11.118c60.224-34.538,156.439-89.719,156.441-89.721c39.9-22.341,86.367-43.931,120.372-75.073
				C5408.14,436.806,5372.729,370.744,5328.794,321.212z M4913.122,584.839c-13.46-9.684-26.295-20.063-38.357-31.124
				c-61.102-56.038-23.556-71.989-11.472-64.419c4.724,2.212,9.202,4.776,13.433,7.69c8.137,4.882,15.899,9.988,23.466,15.54
				c13.959,10.244,27.034,21.461,38.996,33.566c25.261,25.563,44.664,54.666,59.119,86.102
				C4967.99,619.257,4939.405,603.749,4913.122,584.839z M5259.517,491.993c-15.297,14.92-32.213,28.861-49.206,42.375
				c-35.008,27.839-72.627,52.985-112.296,75.8c10.102-32.322,23.913-63.612,42.354-93.347
				c19.802-31.928,46.792-75.172,83.783-94.503c27.896-14.577,60.776-6.817,62.006,24.726
				C5286.867,465.29,5272.89,478.952,5259.517,491.993z"></path>
			<circle fill="#1C1C1C" cx="5042.437" cy="679.336" r="54.657"></circle>
		</g>
	</g>
</g>
<g>
	<g>
		<g>
			<g>
				<g>
					<path fill="#1C1C1C" d="M4927.301,1611.963c-3.783,0-7.312-0.705-10.586-2.119c-3.273-1.414-6.123-3.361-8.549-5.844
						c-2.426-2.479-4.328-5.357-5.711-8.633c-1.382-3.273-2.073-6.82-2.073-10.641c0-3.871,0.702-7.43,2.11-10.68
						c1.406-3.248,3.37-6.102,5.893-8.559c2.521-2.455,5.444-4.377,8.768-5.768c3.321-1.389,6.898-2.084,10.73-2.084
						c4.414,0,8.439,0.832,12.078,2.494c3.638,1.662,6.645,3.932,9.021,6.809l-7.857,8.037c-1.601-2.182-3.529-3.832-5.784-4.949
						c-2.255-1.115-4.766-1.674-7.53-1.674c-3.008,0-5.699,0.684-8.076,2.047c-2.377,1.365-4.232,3.273-5.565,5.73
						c-1.335,2.455-2.001,5.32-2.001,8.596c0,3.225,0.655,6.078,1.965,8.559s3.104,4.428,5.384,5.842
						c2.279,1.414,4.898,2.121,7.857,2.121c2.958,0,5.493-0.584,7.603-1.75c2.11-1.164,3.734-2.865,4.875-5.098
						c1.139-2.232,1.71-4.912,1.71-8.037l7.64,5.209l-22.918-0.371v-9.898h26.992v1.711c0,6.252-1.104,11.535-3.311,15.852
						c-2.208,4.316-5.264,7.58-9.168,9.787S4932.395,1611.963,4927.301,1611.963z"></path>
					<path fill="#1C1C1C" d="M4996.49,1611.07v-52.541h11.496v52.541H4996.49z"></path>
					<path fill="#1C1C1C" d="M5054.186,1611.07v-52.541h11.496v52.541H5054.186z M5062.989,1568.65v-10.121h26.919v10.121H5062.989z
						 M5062.989,1590.531v-10.195h25.755v10.195H5062.989z"></path>
					<path fill="#1C1C1C" d="M5129.996,1568.801v-10.271h43.654v10.271H5129.996z M5146.076,1611.07v-51.871h11.567v51.871H5146.076
						z"></path>
					<path fill="#1C1C1C" d="M5231.854,1611.889c-4.269,0-7.919-0.695-10.949-2.084c-3.032-1.387-5.785-3.521-8.258-6.398
						l7.42-7.592c1.648,1.936,3.48,3.436,5.494,4.502c2.012,1.068,4.353,1.602,7.021,1.602c2.376,0,4.231-0.459,5.565-1.377
						s2.001-2.17,2.001-3.76c0-1.387-0.425-2.529-1.272-3.422c-0.85-0.895-2.002-1.662-3.457-2.307s-3.031-1.254-4.729-1.824
						c-1.699-0.57-3.408-1.252-5.129-2.047c-1.723-0.793-3.299-1.76-4.729-2.902c-1.431-1.141-2.583-2.604-3.456-4.391
						c-0.873-1.785-1.31-3.992-1.31-6.623c0-3.275,0.765-6.076,2.292-8.41c1.527-2.33,3.674-4.104,6.439-5.32
						c2.764-1.215,5.893-1.824,9.385-1.824c3.638,0,6.936,0.646,9.895,1.936c2.958,1.291,5.408,3.027,7.349,5.209l-7.494,7.666
						c-1.553-1.637-3.117-2.854-4.692-3.646c-1.577-0.793-3.336-1.191-5.275-1.191c-1.988,0-3.564,0.385-4.729,1.154
						s-1.746,1.873-1.746,3.311c0,1.291,0.437,2.346,1.31,3.164s2.024,1.525,3.456,2.121c1.43,0.594,3.006,1.189,4.729,1.785
						c1.721,0.596,3.443,1.277,5.166,2.047c1.721,0.77,3.285,1.773,4.692,3.014c1.406,1.24,2.558,2.779,3.456,4.615
						c0.896,1.836,1.346,4.143,1.346,6.92c0,5.012-1.746,8.943-5.238,11.795C5242.912,1610.463,5238.062,1611.889,5231.854,1611.889
						z"></path>
				</g>
			</g>
		</g>
	</g>
	<g>
		<g>
			<path fill="#1C1C1C" d="M5631.353,852.118v550.534c0,7.473-6.058,13.531-13.531,13.531h-177.399
				c-7.473,0-13.531-6.058-13.531-13.531V865.649c0-7.473,6.058-13.531,13.531-13.531H5631.353 M5342.324,767.549v719.671
				c0,7.473,6.058,13.531,13.531,13.531h346.536c7.473,0,13.531-6.058,13.531-13.531V781.08c0-7.473-6.058-13.531-13.531-13.531
				H5342.324"></path>
			<path fill="#1C1C1C" d="M5431.06,852.118h-130.997c-7.473,0-13.531-6.058-13.531-13.531V781.08
				c0-7.473,6.058-13.531,13.531-13.531h130.997c7.473,0,13.531,6.058,13.531,13.531v57.506
				C5444.591,846.06,5438.533,852.118,5431.06,852.118z"></path>
			<path fill="#1C1C1C" d="M5430.51,1500.751h-130.997c-7.473,0-13.531-6.058-13.531-13.531v-57.506
				c0-7.473,6.058-13.531,13.531-13.531h130.997c7.473,0,13.531,6.058,13.531,13.531v57.506
				C5444.041,1494.693,5437.982,1500.751,5430.51,1500.751z"></path>
		</g>
	</g>
	<g>
		<g>
			<path fill="#1C1C1C" d="M5063.746,767.946c-4.012,0.006-7.814,1.791-10.381,4.875l-293.952,353.196l-28.811,34.613
				c-3.797,4.561-4.178,11.063-0.941,16.037l22.074,33.918l185.054,284.269c2.499,3.839,6.771,6.153,11.352,6.149l68.869-0.057
				c10.739-0.009,17.188-11.924,11.324-20.92l-41.481-63.635h-0.22l-133.973-205.805l-18.078-27.761
				c-3.239-4.974-2.858-11.478,0.939-16.04l33.935-40.767l223.608-268.679c2.566-3.083,6.368-4.869,10.38-4.875l35.68-0.054
				c7.481-0.011,13.551,6.05,13.551,13.531v621.342c0,7.477,6.065,13.537,13.542,13.531l57.506-0.046
				c7.469-0.006,13.52-6.062,13.52-13.531V781.252c0-7.48-6.07-13.542-13.55-13.531L5063.746,767.946z"></path>
			<path fill="#1C1C1C" d="M5237.241,1139.548v57.506c0,7.473-6.058,13.531-13.531,13.531h-464.638
				c-4.577,0-8.844-2.314-11.341-6.15l-18.071-27.768c-3.237-4.974-2.855-11.476,0.941-16.037l24.754-29.738
				c2.571-3.088,6.381-4.874,10.399-4.874h457.955C5231.183,1126.017,5237.241,1132.075,5237.241,1139.548z"></path>
			<line fill="#1C1C1C" x1="5152.672" y1="1416.255" x2="5152.672" y2="1257.69"></line>
		</g>
	</g>
	<g>
		<g>
			<g>
				<path fill="#1C1C1C" d="M4651.516,1176.668c-3.239-4.974-2.858-11.478,0.939-16.04l28.81-34.61l279.537-335.875
					c7.336-8.815,1.068-22.187-10.4-22.187h-507.365c-7.473,0-13.531,6.058-13.531,13.531v705.959
					c0,7.473,6.058,13.531,13.531,13.531h57.506c7.473,0,13.531-6.058,13.531-13.531V866.054c0-7.473,6.058-13.531,13.531-13.531
					H4770c11.468,0,17.736,13.372,10.4,22.187l-199.332,239.501l-9.827,11.806l-23.689,28.472
					c-3.795,4.562-4.175,11.064-0.938,16.037l26.081,40.059l2.503,3.856l87.088,133.77l1.066,1.641l94.434,144.978
					c2.497,3.834,6.763,6.146,11.338,6.146h68.567c10.74,0,17.199-11.912,11.339-20.913l-175.429-269.477L4651.516,1176.668z"></path>
				<polygon fill="#1C1C1C" points="4572.696,1210.585 4514.074,1210.585 4514.074,1126.017 4571.242,1126.017 4614.971,1168.301 
									"></polygon>
			</g>
			<rect x="4429.505" y="1126.017" fill="#1C1C1C" width="84.568" height="84.568"></rect>
			<line fill="#1C1C1C" x1="4663.354" y1="1349.853" x2="4662.288" y2="1348.212"></line>
			<line fill="#1C1C1C" x1="4514.074" y1="1416.408" x2="4514.074" y2="1306.165"></line>
		</g>
	</g>
</g>
<g>
	<g>
		<g>
			<path fill="#FFFFFF" d="M3651.18,716.242H2392.183c-7.473,0-13.531-6.058-13.531-13.531v-57.506
				c0-7.473,6.058-13.531,13.531-13.531H3651.18c7.473,0,13.531,6.058,13.531,13.531v57.506
				C3664.711,710.184,3658.653,716.242,3651.18,716.242z"></path>
			<g>
				<path fill="#FFFFFF" d="M2797.821,1627.549h-405.638c-7.473,0-13.531-6.058-13.531-13.531v-57.506
					c0-7.473,6.058-13.531,13.531-13.531h405.638c7.473,0,13.531,6.058,13.531,13.531v57.506
					C2811.352,1621.491,2805.294,1627.549,2797.821,1627.549z"></path>
				<path fill="#FFFFFF" d="M3651.537,1627.549h-402.783c-7.473,0-13.531-6.058-13.531-13.531v-57.506
					c0-7.473,6.058-13.531,13.531-13.531h402.783c7.473,0,13.531,6.058,13.531,13.531v57.506
					C3665.068,1621.491,3659.01,1627.549,3651.537,1627.549z"></path>
			</g>
		</g>
	</g>
	<g>
		<g>
			<path fill="#FFFFFF" d="M3277.941,321.212c-2.968-4.443-6.74-8.577-11.391-12.33c-0.077-0.081-0.155-0.164-0.23-0.243
				c-0.361-0.372-0.769-0.493-1.145-0.786c-4.102-3.134-8.789-6.012-14.258-8.523c-69.591-31.938-127.093,55.05-159.006,102.697
				c-48.154,71.898-81.819,151.842-102.123,235.727c-0.1-0.002-0.199,0.004-0.301,0.004
				c-22.859-69.344-58.896-133.087-109.366-186.478c-116.296-123.023-199.67-39.214-213.842,77.821
				c-4,33.029,30.109,49.798,54.248,64.971c113.497,71.353,197.793,64.807,228.886,77.688c0.103,0.041,0.378,0.164,0.791,0.351
				c-4.175,11.262,13.128,28.588,13.128,28.588c6.952,7.093,16.526,11.378,27.345,10.187c2.71-0.297,5.372-0.977,7.941-1.947
				c3.508-0.147,7.024-1.058,10.168-2.573c1.551-0.75,2.972-1.708,4.327-2.756c18.529-18.447,12.124-36.629,12.124-36.629
				c-0.8-3.878-2.142-7.65-4.013-11.118c60.224-34.538,156.439-89.719,156.441-89.721c39.9-22.341,86.367-43.931,120.372-75.073
				C3357.287,436.806,3321.875,370.744,3277.941,321.212z M2862.268,584.839c-13.46-9.684-26.296-20.063-38.358-31.124
				c-61.102-56.038-23.555-71.989-11.472-64.419c4.724,2.212,9.201,4.776,13.433,7.69c8.137,4.882,15.899,9.988,23.466,15.54
				c13.959,10.244,27.033,21.461,38.996,33.566c25.261,25.563,44.664,54.666,59.119,86.102
				C2917.137,619.257,2888.551,603.749,2862.268,584.839z M3208.663,491.993c-15.297,14.92-32.213,28.861-49.206,42.375
				c-35.008,27.839-72.627,52.985-112.297,75.8c10.102-32.322,23.913-63.612,42.354-93.347
				c19.802-31.928,46.792-75.172,83.782-94.503c27.896-14.577,60.777-6.817,62.007,24.726
				C3236.013,465.29,3222.036,478.952,3208.663,491.993z"></path>
			<circle fill="#FFFFFF" cx="2991.584" cy="679.336" r="54.657"></circle>
		</g>
	</g>
</g>
<g>
	<g>
		<g>
			<g>
				<g>
					<path fill="#FFFFFF" d="M2876.447,1611.963c-3.783,0-7.312-0.705-10.586-2.119c-3.273-1.414-6.123-3.361-8.549-5.844
						c-2.426-2.479-4.328-5.357-5.711-8.633c-1.382-3.273-2.073-6.82-2.073-10.641c0-3.871,0.702-7.43,2.11-10.68
						c1.406-3.248,3.37-6.102,5.893-8.559c2.521-2.455,5.444-4.377,8.768-5.768c3.321-1.389,6.898-2.084,10.73-2.084
						c4.414,0,8.439,0.832,12.078,2.494c3.638,1.662,6.645,3.932,9.021,6.809l-7.857,8.037c-1.601-2.182-3.529-3.832-5.784-4.949
						c-2.255-1.115-4.766-1.674-7.53-1.674c-3.008,0-5.699,0.684-8.076,2.047c-2.377,1.365-4.232,3.273-5.565,5.73
						c-1.335,2.455-2.001,5.32-2.001,8.596c0,3.225,0.655,6.078,1.965,8.559s3.104,4.428,5.384,5.842
						c2.279,1.414,4.898,2.121,7.857,2.121c2.958,0,5.493-0.584,7.603-1.75c2.11-1.164,3.734-2.865,4.875-5.098
						c1.139-2.232,1.71-4.912,1.71-8.037l7.64,5.209l-22.918-0.371v-9.898h26.992v1.711c0,6.252-1.104,11.535-3.311,15.852
						c-2.208,4.316-5.264,7.58-9.168,9.787S2881.541,1611.963,2876.447,1611.963z"></path>
					<path fill="#FFFFFF" d="M2945.637,1611.07v-52.541h11.496v52.541H2945.637z"></path>
					<path fill="#FFFFFF" d="M3003.332,1611.07v-52.541h11.496v52.541H3003.332z M3012.136,1568.65v-10.121h26.919v10.121H3012.136z
						 M3012.136,1590.531v-10.195h25.755v10.195H3012.136z"></path>
					<path fill="#FFFFFF" d="M3079.143,1568.801v-10.271h43.654v10.271H3079.143z M3095.223,1611.07v-51.871h11.567v51.871H3095.223
						z"></path>
					<path fill="#FFFFFF" d="M3181,1611.889c-4.269,0-7.919-0.695-10.949-2.084c-3.032-1.387-5.785-3.521-8.258-6.398l7.42-7.592
						c1.648,1.936,3.48,3.436,5.494,4.502c2.012,1.068,4.353,1.602,7.021,1.602c2.376,0,4.231-0.459,5.565-1.377
						s2.001-2.17,2.001-3.76c0-1.387-0.425-2.529-1.272-3.422c-0.85-0.895-2.002-1.662-3.457-2.307s-3.031-1.254-4.729-1.824
						c-1.699-0.57-3.408-1.252-5.129-2.047c-1.723-0.793-3.299-1.76-4.729-2.902c-1.431-1.141-2.583-2.604-3.456-4.391
						c-0.873-1.785-1.31-3.992-1.31-6.623c0-3.275,0.765-6.076,2.292-8.41c1.527-2.33,3.674-4.104,6.439-5.32
						c2.764-1.215,5.893-1.824,9.385-1.824c3.638,0,6.936,0.646,9.895,1.936c2.958,1.291,5.408,3.027,7.349,5.209l-7.494,7.666
						c-1.553-1.637-3.117-2.854-4.692-3.646c-1.577-0.793-3.336-1.191-5.275-1.191c-1.988,0-3.564,0.385-4.729,1.154
						s-1.746,1.873-1.746,3.311c0,1.291,0.437,2.346,1.31,3.164s2.024,1.525,3.456,2.121c1.43,0.594,3.006,1.189,4.729,1.785
						c1.721,0.596,3.443,1.277,5.166,2.047c1.721,0.77,3.285,1.773,4.692,3.014c1.406,1.24,2.558,2.779,3.456,4.615
						c0.896,1.836,1.346,4.143,1.346,6.92c0,5.012-1.746,8.943-5.238,11.795C3192.059,1610.463,3187.208,1611.889,3181,1611.889z"></path>
				</g>
			</g>
		</g>
	</g>
	<g>
		<g>
			<path fill="#FFFFFF" d="M3580.5,852.118v550.534c0,7.473-6.058,13.531-13.531,13.531H3389.57
				c-7.473,0-13.531-6.058-13.531-13.531V865.649c0-7.473,6.058-13.531,13.531-13.531H3580.5 M3291.471,767.549v719.671
				c0,7.473,6.058,13.531,13.531,13.531h346.535c7.473,0,13.531-6.058,13.531-13.531V781.08c0-7.473-6.058-13.531-13.531-13.531
				H3291.471"></path>
			<path fill="#FFFFFF" d="M3380.206,852.118H3249.21c-7.473,0-13.531-6.058-13.531-13.531V781.08
				c0-7.473,6.058-13.531,13.531-13.531h130.997c7.473,0,13.531,6.058,13.531,13.531v57.506
				C3393.737,846.06,3387.679,852.118,3380.206,852.118z"></path>
			<path fill="#FFFFFF" d="M3379.656,1500.751H3248.66c-7.473,0-13.531-6.058-13.531-13.531v-57.506
				c0-7.473,6.058-13.531,13.531-13.531h130.997c7.473,0,13.531,6.058,13.531,13.531v57.506
				C3393.187,1494.693,3387.129,1500.751,3379.656,1500.751z"></path>
		</g>
	</g>
	<g>
		<g>
			<path fill="#FFFFFF" d="M3012.892,767.946c-4.012,0.006-7.815,1.791-10.381,4.875l-293.952,353.196l-28.812,34.613
				c-3.796,4.561-4.178,11.063-0.941,16.037l22.074,33.918l185.054,284.269c2.499,3.839,6.771,6.153,11.351,6.149l68.869-0.057
				c10.739-0.009,17.188-11.924,11.324-20.92l-41.481-63.635h-0.22l-133.973-205.805l-18.078-27.761
				c-3.239-4.974-2.858-11.478,0.939-16.04l33.934-40.767l223.608-268.679c2.566-3.083,6.368-4.869,10.38-4.875l35.68-0.054
				c7.481-0.011,13.552,6.05,13.552,13.531v621.342c0,7.477,6.064,13.537,13.542,13.531l57.506-0.046
				c7.469-0.006,13.52-6.062,13.52-13.531V781.252c0-7.48-6.07-13.542-13.55-13.531L3012.892,767.946z"></path>
			<path fill="#FFFFFF" d="M3186.387,1139.548v57.506c0,7.473-6.058,13.531-13.531,13.531h-464.637
				c-4.577,0-8.844-2.314-11.341-6.15l-18.072-27.768c-3.237-4.974-2.855-11.476,0.941-16.037l24.754-29.738
				c2.571-3.088,6.381-4.874,10.4-4.874h457.955C3180.329,1126.017,3186.387,1132.075,3186.387,1139.548z"></path>
			<line fill="#FFFFFF" x1="3101.819" y1="1416.255" x2="3101.819" y2="1257.69"></line>
		</g>
	</g>
	<g>
		<g>
			<g>
				<path fill="#FFFFFF" d="M2600.663,1176.668c-3.239-4.974-2.858-11.478,0.939-16.04l28.81-34.61l279.536-335.875
					c7.336-8.815,1.068-22.187-10.4-22.187h-507.365c-7.473,0-13.531,6.058-13.531,13.531v705.959
					c0,7.473,6.058,13.531,13.531,13.531h57.506c7.473,0,13.531-6.058,13.531-13.531V866.054c0-7.473,6.058-13.531,13.531-13.531
					h242.395c11.468,0,17.736,13.372,10.4,22.187l-199.332,239.501l-9.826,11.806l-23.689,28.472
					c-3.795,4.562-4.176,11.064-0.938,16.037l26.081,40.059l2.503,3.856l87.088,133.77l1.066,1.641l94.434,144.978
					c2.497,3.834,6.762,6.146,11.338,6.146h68.567c10.74,0,17.199-11.912,11.34-20.913l-175.429-269.477L2600.663,1176.668z"></path>
				<polygon fill="#FFFFFF" points="2521.843,1210.585 2463.22,1210.585 2463.22,1126.017 2520.388,1126.017 2564.118,1168.301 				
					"></polygon>
			</g>
			<rect x="2378.652" y="1126.017" fill="#FFFFFF" width="84.568" height="84.568"></rect>
			<line fill="#FFFFFF" x1="2612.5" y1="1349.853" x2="2611.434" y2="1348.212"></line>
			<line fill="#FFFFFF" x1="2463.22" y1="1416.408" x2="2463.22" y2="1306.165"></line>
		</g>
	</g>
</g>
<g>
	<g>
		<g>
			<path fill="#88A29F" d="M1589.32,716.242H330.323c-7.473,0-13.531-6.058-13.531-13.531v-57.506
				c0-7.473,6.058-13.531,13.531-13.531H1589.32c7.473,0,13.531,6.058,13.531,13.531v57.506
				C1602.851,710.184,1596.793,716.242,1589.32,716.242z"></path>
			<g>
				<path fill="#88A29F" d="M735.961,1627.549H330.323c-7.473,0-13.531-6.058-13.531-13.531v-57.506
					c0-7.473,6.058-13.531,13.531-13.531h405.638c7.473,0,13.531,6.058,13.531,13.531v57.506
					C749.492,1621.491,743.434,1627.549,735.961,1627.549z"></path>
				<path fill="#88A29F" d="M1589.677,1627.549h-402.784c-7.473,0-13.531-6.058-13.531-13.531v-57.506
					c0-7.473,6.058-13.531,13.531-13.531h402.784c7.473,0,13.531,6.058,13.531,13.531v57.506
					C1603.208,1621.491,1597.15,1627.549,1589.677,1627.549z"></path>
			</g>
		</g>
	</g>
	<g>
		<g>
			<path fill="#88A29F" d="M1216.081,321.212c-2.968-4.443-6.74-8.577-11.391-12.33c-0.077-0.081-0.155-0.164-0.23-0.243
				c-0.361-0.372-0.769-0.493-1.145-0.786c-4.102-3.134-8.789-6.012-14.257-8.523c-69.591-31.938-127.093,55.05-159.006,102.697
				c-48.154,71.898-81.819,151.842-102.123,235.727c-0.1-0.002-0.199,0.004-0.301,0.004
				c-22.859-69.344-58.895-133.087-109.366-186.478c-116.296-123.023-199.67-39.214-213.842,77.821
				c-4,33.029,30.109,49.798,54.248,64.971c113.497,71.353,197.793,64.807,228.886,77.688c0.103,0.041,0.378,0.164,0.791,0.351
				c-4.175,11.262,13.128,28.588,13.128,28.588c6.952,7.093,16.526,11.378,27.345,10.187c2.71-0.297,5.372-0.977,7.941-1.947
				c3.508-0.147,7.024-1.058,10.168-2.573c1.551-0.75,2.972-1.708,4.327-2.756c18.529-18.447,12.124-36.629,12.124-36.629
				c-0.8-3.878-2.142-7.65-4.013-11.118c60.224-34.538,156.439-89.719,156.441-89.721c39.9-22.341,86.367-43.931,120.372-75.073
				C1295.427,436.806,1260.016,370.744,1216.081,321.212z M800.408,584.839c-13.46-9.684-26.296-20.063-38.358-31.124
				c-61.102-56.038-23.555-71.989-11.472-64.419c4.724,2.212,9.202,4.776,13.433,7.69c8.137,4.882,15.899,9.988,23.466,15.54
				c13.959,10.244,27.034,21.461,38.996,33.566c25.261,25.563,44.664,54.666,59.119,86.102
				C855.277,619.257,826.691,603.749,800.408,584.839z M1146.803,491.993c-15.297,14.92-32.213,28.861-49.205,42.375
				c-35.008,27.839-72.627,52.985-112.297,75.8c10.102-32.322,23.913-63.612,42.354-93.347
				c19.802-31.928,46.792-75.172,83.782-94.503c27.896-14.577,60.776-6.817,62.006,24.726
				C1174.154,465.29,1160.176,478.952,1146.803,491.993z"></path>
			<circle fill="#88A29F" cx="929.724" cy="679.336" r="54.657"></circle>
		</g>
	</g>
</g>
<g>
	<g>
		<g>
			<g>
				<g>
					<path fill="#4E3E63" d="M814.589,1611.963c-3.783,0-7.312-0.705-10.586-2.119c-3.273-1.414-6.124-3.361-8.549-5.844
						c-2.426-2.479-4.328-5.357-5.711-8.633c-1.382-3.273-2.073-6.82-2.073-10.641c0-3.871,0.702-7.43,2.109-10.68
						c1.406-3.248,3.371-6.102,5.894-8.559c2.521-2.455,5.444-4.377,8.767-5.768c3.322-1.389,6.899-2.084,10.731-2.084
						c4.413,0,8.439,0.832,12.078,2.494c3.638,1.662,6.645,3.932,9.021,6.809l-7.857,8.037c-1.601-2.182-3.529-3.832-5.784-4.949
						c-2.256-1.115-4.766-1.674-7.53-1.674c-3.008,0-5.7,0.684-8.076,2.047c-2.377,1.365-4.232,3.273-5.565,5.73
						c-1.335,2.455-2.001,5.32-2.001,8.596c0,3.225,0.655,6.078,1.965,8.559s3.104,4.428,5.384,5.842
						c2.279,1.414,4.898,2.121,7.857,2.121c2.958,0,5.493-0.584,7.603-1.75c2.11-1.164,3.734-2.865,4.875-5.098
						c1.139-2.232,1.71-4.912,1.71-8.037l7.639,5.209l-22.918-0.371v-9.898h26.992v1.711c0,6.252-1.104,11.535-3.31,15.852
						c-2.208,4.316-5.264,7.58-9.168,9.787S819.682,1611.963,814.589,1611.963z"></path>
					<path fill="#4E3E63" d="M883.778,1611.07v-52.541h11.496v52.541H883.778z"></path>
					<path fill="#4E3E63" d="M941.474,1611.07v-52.541h11.495v52.541H941.474z M950.277,1568.65v-10.121h26.919v10.121H950.277z
						 M950.277,1590.531v-10.195h25.755v10.195H950.277z"></path>
					<path fill="#4E3E63" d="M1017.284,1568.801v-10.271h43.653v10.271H1017.284z M1033.363,1611.07v-51.871h11.568v51.871H1033.363
						z"></path>
					<path fill="#4E3E63" d="M1119.142,1611.889c-4.269,0-7.919-0.695-10.95-2.084c-3.031-1.387-5.784-3.521-8.258-6.398
						l7.421-7.592c1.648,1.936,3.48,3.436,5.493,4.502c2.013,1.068,4.354,1.602,7.021,1.602c2.376,0,4.23-0.459,5.565-1.377
						c1.333-0.918,2.001-2.17,2.001-3.76c0-1.387-0.426-2.529-1.273-3.422c-0.85-0.895-2.001-1.662-3.456-2.307
						s-3.031-1.254-4.729-1.824c-1.699-0.57-3.408-1.252-5.13-2.047c-1.722-0.793-3.299-1.76-4.729-2.902
						c-1.432-1.141-2.583-2.604-3.456-4.391c-0.873-1.785-1.31-3.992-1.31-6.623c0-3.275,0.764-6.076,2.292-8.41
						c1.527-2.33,3.674-4.104,6.438-5.32c2.765-1.215,5.894-1.824,9.386-1.824c3.638,0,6.936,0.646,9.895,1.936
						c2.958,1.291,5.407,3.027,7.349,5.209l-7.494,7.666c-1.553-1.637-3.117-2.854-4.692-3.646
						c-1.577-0.793-3.336-1.191-5.275-1.191c-1.989,0-3.564,0.385-4.729,1.154s-1.746,1.873-1.746,3.311
						c0,1.291,0.437,2.346,1.31,3.164s2.024,1.525,3.455,2.121c1.431,0.594,3.007,1.189,4.729,1.785
						c1.721,0.596,3.443,1.277,5.166,2.047c1.721,0.77,3.285,1.773,4.692,3.014c1.406,1.24,2.558,2.779,3.456,4.615
						c0.896,1.836,1.346,4.143,1.346,6.92c0,5.012-1.746,8.943-5.238,11.795C1130.2,1610.463,1125.35,1611.889,1119.142,1611.889z"></path>
				</g>
			</g>
		</g>
	</g>
	<g>
		<g>
			<path fill="#4E3E63" d="M1518.64,852.118v550.534c0,7.473-6.058,13.531-13.531,13.531H1327.71
				c-7.473,0-13.531-6.058-13.531-13.531V865.649c0-7.473,6.058-13.531,13.531-13.531H1518.64 M1229.611,767.549v719.671
				c0,7.473,6.058,13.531,13.531,13.531h346.535c7.473,0,13.531-6.058,13.531-13.531V781.08c0-7.473-6.058-13.531-13.531-13.531
				H1229.611"></path>
			<path fill="#4E3E63" d="M1318.346,852.118H1187.35c-7.473,0-13.531-6.058-13.531-13.531V781.08
				c0-7.473,6.058-13.531,13.531-13.531h130.997c7.473,0,13.531,6.058,13.531,13.531v57.506
				C1331.877,846.06,1325.819,852.118,1318.346,852.118z"></path>
			<path fill="#4E3E63" d="M1317.796,1500.751H1186.8c-7.473,0-13.531-6.058-13.531-13.531v-57.506
				c0-7.473,6.058-13.531,13.531-13.531h130.996c7.473,0,13.531,6.058,13.531,13.531v57.506
				C1331.327,1494.693,1325.269,1500.751,1317.796,1500.751z"></path>
		</g>
	</g>
	<g>
		<g>
			<path fill="#4E3E63" d="M951.032,767.946c-4.012,0.006-7.815,1.791-10.381,4.875l-293.952,353.196l-28.811,34.613
				c-3.796,4.561-4.178,11.063-0.941,16.037l22.074,33.918l185.054,284.269c2.499,3.839,6.771,6.153,11.351,6.149l68.869-0.057
				c10.739-0.009,17.188-11.924,11.324-20.92l-41.481-63.635h-0.22l-133.973-205.805l-18.078-27.761
				c-3.239-4.974-2.858-11.478,0.939-16.04l33.934-40.767l223.608-268.679c2.566-3.083,6.368-4.869,10.38-4.875l35.68-0.054
				c7.481-0.011,13.552,6.05,13.552,13.531v621.342c0,7.477,6.065,13.537,13.542,13.531l57.506-0.046
				c7.469-0.006,13.52-6.062,13.52-13.531V781.252c0-7.48-6.07-13.542-13.55-13.531L951.032,767.946z"></path>
			<path fill="#4E3E63" d="M1124.527,1139.548v57.506c0,7.473-6.058,13.531-13.531,13.531H646.359c-4.577,0-8.844-2.314-11.341-6.15
				l-18.072-27.768c-3.237-4.974-2.855-11.476,0.941-16.037l24.754-29.738c2.571-3.088,6.381-4.874,10.4-4.874h457.955
				C1118.469,1126.017,1124.527,1132.075,1124.527,1139.548z"></path>
			<line fill="#4E3E63" x1="1039.959" y1="1416.255" x2="1039.959" y2="1257.69"></line>
		</g>
	</g>
	<g>
		<g>
			<g>
				<path fill="#4E3E63" d="M538.803,1176.668c-3.239-4.974-2.858-11.478,0.939-16.04l28.81-34.61l279.536-335.875
					c7.336-8.815,1.068-22.187-10.4-22.187H330.323c-7.473,0-13.531,6.058-13.531,13.531v705.959
					c0,7.473,6.058,13.531,13.531,13.531h57.506c7.473,0,13.531-6.058,13.531-13.531V866.054c0-7.473,6.058-13.531,13.531-13.531
					h242.395c11.468,0,17.736,13.372,10.4,22.187l-199.332,239.501l-9.827,11.806l-23.689,28.472
					c-3.795,4.562-4.176,11.064-0.938,16.037l26.081,40.059l2.503,3.856l87.088,133.77l1.066,1.641l94.434,144.978
					c2.497,3.834,6.763,6.146,11.338,6.146h68.567c10.74,0,17.199-11.912,11.34-20.913l-175.43-269.477L538.803,1176.668z"></path>
				<polygon fill="#4E3E63" points="459.983,1210.585 401.36,1210.585 401.36,1126.017 458.528,1126.017 502.258,1168.301 				"></polygon>
			</g>
			<rect x="316.792" y="1126.017" fill="#4E3E63" width="84.568" height="84.568"></rect>
			<line fill="#4E3E63" x1="550.64" y1="1349.853" x2="549.575" y2="1348.212"></line>
			<line fill="#4E3E63" x1="401.36" y1="1416.408" x2="401.36" y2="1306.165"></line>
		</g>
	</g>
</g>
</svg>