<svg id="Group_209" data-name="Group 209" xmlns="http://www.w3.org/2000/svg" xmlns:xlink="http://www.w3.org/1999/xlink" width="79.743" height="51.256" viewBox="0 0 79.743 51.256">
  <defs>
    <clipPath id="clip-path">
      <rect id="Rectangle_7" data-name="Rectangle 7" width="79.743" height="51.256" fill="#dfdceb"/>
    </clipPath>
  </defs>
  <g id="Group_40" data-name="Group 40" clip-path="url(#clip-path)">
    <path id="Path_15" data-name="Path 15" d="M.022,33.184a72.732,72.732,0,0,1,1.3-15.619A16.969,16.969,0,0,1,2.49,13.849a6.082,6.082,0,0,1,8.984-3c3.07,1.685,5.46,4.21,7.99,6.55A166.573,166.573,0,0,1,32.358,30.609a2.827,2.827,0,0,1,.647.82c1.05,3.267,4.089,3.22,6.618,4.011.882.275.827-.618.955-1.017,1.12-3.472,2.357-6.9,3.643-10.315A247.813,247.813,0,0,1,54.3,1.21c.715-1.44,1.4-1.578,2.692-.5a204.009,204.009,0,0,1,15.7,14.852c1.78,1.825,3.83,3.382,5.348,5.462,2.765,3.782,2.167,6.952-1.858,9.442A65.083,65.083,0,0,1,66.921,34.7c-7.377,3.088-14.809,6.048-22.367,8.677a10.729,10.729,0,0,1-5.112.923.737.737,0,0,0-.838.473c-1.241,2.49-3.7,2.62-5.809,2.363-2.55-.31-4.966.14-7.434.295-3.45.215-6.558,1.73-9.789,2.758a17.574,17.574,0,0,1-5.114,1.07C5.211,51.327,2.015,48.7,1,43.538A62.437,62.437,0,0,1,.026,33.182m50.5-15.09c.213,1.175,3.17-.688,3.355-.805,1.839-1.153,3.858-.912,5.826-.782A6.281,6.281,0,0,1,63.077,18c1.31,1.02,1.32,2.4.232,4.27-1.023,1.757-2.433,3.258-3.315,5.112a10.408,10.408,0,0,1-3.142,4.044c-1.385,1-2.312,2.458-3.758,3.352a.573.573,0,0,0-.284.759l.007.014c.178.33.52.258.8.18a34.691,34.691,0,0,0,3.575-1.065,122.955,122.955,0,0,0,12.486-5.27c1.235-.647,2.437-1.793,4.06-1.635,2.325-.709,3.3-2.545,2.115-4.117a13.368,13.368,0,0,0-3.025-2.859l.02.028-.045-.47Q67.786,15.167,62.767,9.992q-.225-.014-.45-.033c.03-.085.11-.219.082-.247Q59.455,6.751,56.5,3.8c-.573-.573-.757-.005-.95.365-.773,1.5-1.563,3-2.27,4.535l-1.815,3.752s-2.349,4.76-.94,5.635M15.23,22.119c2.037.632,2.16,1.39,3.963,2.522,1.76,1.11,3.252,2.6,5.147,3.51.382.182.764.669,1.146.105.335-.495.074-.887-.345-1.285-.753-.715-1.535-1.49-2.283-2.11-3.73-3.09-6.972-6.737-10.959-9.53l-2.2-1.7a3.1,3.1,0,0,0-3.715.7A6.528,6.528,0,0,0,4.25,18.279a70.894,70.894,0,0,0-.22,23.756,9.164,9.164,0,0,0,1.337,3.642A4.091,4.091,0,0,0,8.5,47.823l2.528-.3a7.632,7.632,0,0,0,2.9-.623c4.174-1.46,8.257-3.27,12.78-3.457.965-.04,1.923-.182,3.16-.3-1.157-.923-2.25-.477-3.222-.668-3.332-.628-6.685-1.13-10.012-1.8-2.519-.507-4.938-1.42-6.434-3.66s-.833-4.918-.587-7.278c.2-1.945,1.247-3.91,1.91-5.873a2.6,2.6,0,0,1,1.6-1.67,8.3,8.3,0,0,1,2.1-.073M25.449,39.081c.91-.06,1.707-.113,2.5-.162.382-.025.86.14,1.065-.323.2-.445-.2-.775-.435-1.04-1.219-1.388-2.6-2.647-3.725-4.107a31.625,31.625,0,0,0-9.585-7.832c-1.69-.977-2.737-.232-2.505,1.732.345,2.922.88,5.826,1.264,8.745a1.684,1.684,0,0,0,1.583,1.655c3.312.455,6.627.892,9.833,1.325M58.32,19.485a5.84,5.84,0,0,0-3.117.745c-3.056,1.584-5.12,4.245-7.329,6.75a40.422,40.422,0,0,0-6.155,9.185,1.169,1.169,0,0,0,.122,1.495c.42.442.73.023,1.05-.145A43.839,43.839,0,0,0,59.973,21.373c.712-1.153.225-1.482-.737-1.745a5.819,5.819,0,0,0-.912-.142M38.227,42.14c0-1.729-.92-2.619-2.785-2.692-.945-.04-2,1.583-1.99,3.056.008,1.219,1.146,2.045,2.787,2.03,1.58-.015,1.987-.507,1.987-2.4M30.114,31.659c.518.675.945,1.212,1.349,1.768s.787,1.137,1.182,1.7a.632.632,0,0,0,.74.337.376.376,0,0,0,.3-.435c-.042-.655-2.61-3.165-3.567-3.375" transform="translate(0 0)" fill="#dfdceb"/>
  </g>
</svg>
